<svg width="32" height="32" viewBox="0 0 32 32" fill="none" xmlns="http://www.w3.org/2000/svg">
    <circle cx="15.5419" cy="15.5419" r="15.5419" fill="#FF9F38"/>
    <path fill-rule="evenodd" clip-rule="evenodd" d="M22.6262 12.9909C22.9365 10.9498 21.3583 9.85222 19.202 9.11989L19.9016 6.35415L18.194 5.9354L17.5121 8.62809C17.0727 8.51938 16.622 8.41814 16.172 8.31705L16.1433 8.31062L16.8302 5.60039L15.1225 5.18066L14.4228 7.94543L14.3481 7.9286L14.3481 7.92859C14.0022 7.85067 13.6618 7.77399 13.3318 7.69222L13.3338 7.68346L10.9778 7.10402L10.5232 8.90175C10.5232 8.90175 11.7911 9.18806 11.7644 9.20559C12.4562 9.37601 12.5807 9.8269 12.56 10.1853L11.7634 13.3357C11.8109 13.3474 11.8722 13.3649 11.9413 13.3912L11.7605 13.3474L10.6438 17.7609C10.5588 17.9673 10.3443 18.278 9.86008 18.1601C9.87787 18.1845 8.61885 17.8553 8.61885 17.8553L7.77094 19.7816L9.99449 20.3279C10.2333 20.387 10.4694 20.4478 10.7031 20.5079L10.7037 20.508C10.8741 20.5519 11.0432 20.5953 11.211 20.6376L10.5044 23.4345L12.2111 23.8533L12.9108 21.0875C13.3772 21.2112 13.8299 21.3261 14.2726 21.4352L13.5749 24.1892L15.2826 24.608L15.9892 21.8169C18.9025 22.3604 21.0925 22.1412 22.0145 19.545C22.7577 17.4551 21.9779 16.2485 20.4452 15.4626C21.5619 15.2094 22.4019 14.4858 22.6262 12.9909ZM18.7227 18.3842C18.2395 20.3023 15.1932 19.5094 13.7988 19.1464L13.7987 19.1464C13.6731 19.1137 13.5609 19.0845 13.4652 19.0611L14.404 15.3556C14.5208 15.3843 14.6635 15.4159 14.8252 15.4517C16.2675 15.771 19.2194 16.4245 18.7227 18.3842ZM15.1149 13.7316C16.2768 14.0373 18.8103 14.7039 19.2514 12.9609C19.7026 11.1781 17.2397 10.6412 16.0366 10.3789C15.901 10.3494 15.7814 10.3233 15.6838 10.2993L14.8339 13.6591C14.9144 13.6789 15.009 13.7038 15.1149 13.7316Z" fill="white"/>
</svg>
