<svg width="24" height="25" viewBox="0 0 24 25" fill="none" xmlns="http://www.w3.org/2000/svg">
    <circle cx="12" cy="12.0459" r="12" fill="#FF9F38"/>
    <path fill-rule="evenodd" clip-rule="evenodd" d="M17.4699 10.0762C17.7095 8.50023 16.4909 7.65282 14.826 7.08737L15.3662 4.95193L14.0477 4.6286L13.5212 6.70766C13.182 6.62372 12.834 6.54555 12.4865 6.4675L12.4644 6.46253L12.9947 4.36994L11.6762 4.04587L11.136 6.18056L11.0783 6.16757L11.0782 6.16755C10.8112 6.10739 10.5484 6.04819 10.2936 5.98506L10.2951 5.9783L8.47604 5.5309L8.12504 6.91894C8.12504 6.91894 9.10401 7.14001 9.08341 7.15354C9.61753 7.28513 9.71367 7.63327 9.69765 7.90997L9.08265 10.3424C9.11927 10.3514 9.16658 10.365 9.21999 10.3853L9.08036 10.3514L8.21813 13.7591C8.15251 13.9185 7.98693 14.1584 7.61305 14.0674C7.62678 14.0862 6.65468 13.8321 6.65468 13.8321L6 15.3194L7.71682 15.7412C7.90122 15.7868 8.08357 15.8337 8.26403 15.8802L8.26449 15.8803C8.39602 15.9141 8.52654 15.9477 8.65611 15.9803L8.11054 18.1398L9.4283 18.4631L9.96853 16.3277C10.3287 16.4232 10.6781 16.5119 11.02 16.5961L10.4813 18.7225L11.7998 19.0459L12.3454 16.8909C14.5948 17.3104 16.2857 17.1413 16.9976 15.1366C17.5714 13.523 16.9693 12.5914 15.7859 11.9846C16.6481 11.7891 17.2967 11.2304 17.4699 10.0762ZM10.6542 14.8288L10.6542 14.8288C10.5572 14.8036 10.4705 14.781 10.3966 14.7629L11.1215 11.9019C11.2116 11.9241 11.3218 11.9485 11.4467 11.9761C12.5603 12.2227 14.8394 12.7272 14.4559 14.2404C14.0828 15.7213 11.7308 15.1091 10.6542 14.8288ZM11.6703 10.648C12.5674 10.8841 14.5236 11.3987 14.8641 10.0529C15.2125 8.67645 13.3109 8.2619 12.382 8.05941C12.2773 8.03659 12.185 8.01646 12.1096 7.99795L11.4534 10.5921C11.5155 10.6073 11.5885 10.6265 11.6703 10.648Z" fill="white"/>
</svg>
