<svg width="171" height="45" viewBox="0 0 171 45" fill="none" xmlns="http://www.w3.org/2000/svg">
<path fill-rule="evenodd" clip-rule="evenodd" d="M20.6571 33.8824C26.8911 33.8824 31.9447 28.8287 31.9447 22.5947C31.9447 16.3607 26.8911 11.307 20.6571 11.307C14.4231 11.307 9.36941 16.3607 9.36941 22.5947C9.36941 28.8287 14.4231 33.8824 20.6571 33.8824ZM20.6571 42.5141C31.6583 42.5141 40.5765 33.5959 40.5765 22.5947C40.5765 11.5935 31.6583 2.67529 20.6571 2.67529C9.65589 2.67529 0.737671 11.5935 0.737671 22.5947C0.737671 33.5959 9.65589 42.5141 20.6571 42.5141Z" fill="#B692F6"/>
<path d="M20.885 23.0309C22.9594 20.9565 26.3226 20.9565 28.397 23.0309L38.7261 33.36C40.8005 35.4344 40.8005 38.7977 38.7261 40.8721C36.6517 42.9465 33.2885 42.9465 31.2141 40.8721L20.885 30.543C18.8106 28.4686 18.8105 25.1053 20.885 23.0309Z" fill="#D6BBFB"/>
<path d="M23.7853 33.4429L30.3454 40.003C33.4919 38.2482 36.1134 35.665 37.9149 32.5484L31.4085 26.042C30.2657 29.6088 27.3971 32.4033 23.7853 33.4429Z" fill="#B692F6"/>
<path d="M72.7374 33.5502C72.1627 34.26 71.4613 34.8009 70.6331 35.1727C69.8219 35.5445 68.9261 35.7304 67.9458 35.7304C66.6275 35.7304 65.436 35.4431 64.3712 34.8685C63.3064 34.3107 62.0895 33.3136 60.7205 31.8769C59.1149 31.6741 57.6783 31.1586 56.4107 30.3305C55.16 29.5023 54.1797 28.4375 53.4699 27.1361C52.7769 25.8178 52.4304 24.3643 52.4304 22.7756C52.4304 21.0348 52.8445 19.4714 53.6727 18.0855C54.5177 16.6827 55.6755 15.5841 57.1459 14.7897C58.6332 13.9954 60.298 13.5982 62.1402 13.5982C63.9825 13.5982 65.6388 13.9954 67.1092 14.7897C68.5796 15.5841 69.7374 16.6827 70.5824 18.0855C71.4275 19.4714 71.85 21.0348 71.85 22.7756C71.85 24.8376 71.2669 26.646 70.1007 28.2009C68.9515 29.7558 67.4219 30.8375 65.512 31.446C65.9346 31.8854 66.3402 32.1981 66.7289 32.384C67.1346 32.5868 67.5655 32.6882 68.0219 32.6882C69.1205 32.6882 70.0838 32.2488 70.912 31.3699L72.7374 33.5502ZM56.5881 22.7756C56.5881 23.8742 56.8248 24.8545 57.298 25.7164C57.7881 26.5784 58.4557 27.2544 59.3008 27.7446C60.1459 28.2178 61.0923 28.4544 62.1402 28.4544C63.1881 28.4544 64.1346 28.2178 64.9796 27.7446C65.8247 27.2544 66.4839 26.5784 66.9571 25.7164C67.4472 24.8545 67.6923 23.8742 67.6923 22.7756C67.6923 21.677 67.4472 20.6967 66.9571 19.8348C66.4839 18.9728 65.8247 18.3052 64.9796 17.832C64.1346 17.3418 63.1881 17.0967 62.1402 17.0967C61.0923 17.0967 60.1459 17.3418 59.3008 17.832C58.4557 18.3052 57.7881 18.9728 57.298 19.8348C56.8248 20.6967 56.5881 21.677 56.5881 22.7756Z" fill="#6941C6"/>
<path d="M88.3985 18.0094V31.6488H84.6464V30.0263C84.1225 30.6178 83.4972 31.0741 82.7704 31.3953C82.0436 31.6995 81.2577 31.8516 80.4127 31.8516C78.6211 31.8516 77.2014 31.3361 76.1535 30.3051C75.1056 29.2741 74.5817 27.7446 74.5817 25.7164V18.0094H78.5366V25.1333C78.5366 27.3305 79.4577 28.4291 81.3 28.4291C82.2465 28.4291 83.007 28.1249 83.5817 27.5164C84.1563 26.8911 84.4436 25.9699 84.4436 24.753V18.0094H88.3985Z" fill="#6941C6"/>
<path d="M98.5526 31.8516C97.116 31.8516 95.823 31.5558 94.6737 30.9643C93.5414 30.3558 92.654 29.5192 92.0118 28.4544C91.3695 27.3896 91.0484 26.1812 91.0484 24.8291C91.0484 23.477 91.3695 22.2685 92.0118 21.2038C92.654 20.139 93.5414 19.3108 94.6737 18.7193C95.823 18.1108 97.116 17.8066 98.5526 17.8066C99.9892 17.8066 101.274 18.1108 102.406 18.7193C103.538 19.3108 104.426 20.139 105.068 21.2038C105.71 22.2685 106.031 23.477 106.031 24.8291C106.031 26.1812 105.71 27.3896 105.068 28.4544C104.426 29.5192 103.538 30.3558 102.406 30.9643C101.274 31.5558 99.9892 31.8516 98.5526 31.8516ZM98.5526 28.6065C99.5667 28.6065 100.395 28.2685 101.037 27.5925C101.696 26.8995 102.026 25.9784 102.026 24.8291C102.026 23.6798 101.696 22.7671 101.037 22.0911C100.395 21.3981 99.5667 21.0517 98.5526 21.0517C97.5385 21.0517 96.7019 21.3981 96.0427 22.0911C95.3836 22.7671 95.054 23.6798 95.054 24.8291C95.054 25.9784 95.3836 26.8995 96.0427 27.5925C96.7019 28.2685 97.5385 28.6065 98.5526 28.6065Z" fill="#6941C6"/>
<path d="M117.472 30.9896C117.083 31.277 116.602 31.4967 116.027 31.6488C115.469 31.784 114.878 31.8516 114.252 31.8516C112.63 31.8516 111.371 31.4375 110.475 30.6093C109.596 29.7812 109.157 28.5643 109.157 26.9587V21.3559H107.052V18.3136H109.157V14.9925H113.112V18.3136H116.509V21.3559H113.112V26.908C113.112 27.4826 113.255 27.9305 113.543 28.2516C113.847 28.5558 114.269 28.708 114.81 28.708C115.435 28.708 115.968 28.5389 116.407 28.2009L117.472 30.9896Z" fill="#6941C6"/>
<path d="M119.692 18.0094H123.647V31.6488H119.692V18.0094ZM121.67 16.108C120.943 16.108 120.351 15.8968 119.895 15.4742C119.439 15.0517 119.21 14.5277 119.21 13.9024C119.21 13.2771 119.439 12.7531 119.895 12.3306C120.351 11.908 120.943 11.6968 121.67 11.6968C122.396 11.6968 122.988 11.8996 123.444 12.3052C123.901 12.7109 124.129 13.2179 124.129 13.8263C124.129 14.4855 123.901 15.0348 123.444 15.4742C122.988 15.8968 122.396 16.108 121.67 16.108Z" fill="#6941C6"/>
<path d="M140.678 24.8798C140.678 24.9305 140.653 25.2854 140.602 25.9446H130.284C130.47 26.7897 130.909 27.4573 131.602 27.9474C132.295 28.4375 133.157 28.6826 134.188 28.6826C134.898 28.6826 135.523 28.5812 136.064 28.3784C136.622 28.1587 137.137 27.8206 137.61 27.3643L139.715 29.646C138.43 31.1164 136.554 31.8516 134.087 31.8516C132.549 31.8516 131.188 31.5558 130.005 30.9643C128.822 30.3558 127.909 29.5192 127.267 28.4544C126.625 27.3896 126.303 26.1812 126.303 24.8291C126.303 23.4939 126.616 22.2939 127.242 21.2291C127.884 20.1474 128.754 19.3108 129.853 18.7193C130.968 18.1108 132.21 17.8066 133.58 17.8066C134.915 17.8066 136.123 18.0939 137.205 18.6686C138.287 19.2432 139.132 20.0714 139.74 21.1531C140.365 22.2178 140.678 23.4601 140.678 24.8798ZM133.605 20.7981C132.709 20.7981 131.957 21.0517 131.349 21.5587C130.74 22.0657 130.368 22.7587 130.233 23.6376H136.951C136.816 22.7756 136.444 22.0911 135.836 21.584C135.227 21.0601 134.484 20.7981 133.605 20.7981Z" fill="#6941C6"/>
<path d="M151.601 17.8066C153.291 17.8066 154.652 18.3136 155.683 19.3277C156.731 20.3418 157.255 21.846 157.255 23.8404V31.6488H153.3V24.4488C153.3 23.3671 153.063 22.5643 152.59 22.0404C152.117 21.4995 151.432 21.2291 150.536 21.2291C149.539 21.2291 148.745 21.5418 148.153 22.1671C147.562 22.7756 147.266 23.6883 147.266 24.9052V31.6488H143.311V18.0094H147.089V19.6066C147.612 19.0319 148.263 18.5925 149.041 18.2883C149.818 17.9672 150.672 17.8066 151.601 17.8066Z" fill="#6941C6"/>
<path d="M169.637 30.9896C169.248 31.277 168.766 31.4967 168.192 31.6488C167.634 31.784 167.042 31.8516 166.417 31.8516C164.795 31.8516 163.535 31.4375 162.64 30.6093C161.761 29.7812 161.321 28.5643 161.321 26.9587V21.3559H159.217V18.3136H161.321V14.9925H165.276V18.3136H168.673V21.3559H165.276V26.908C165.276 27.4826 165.42 27.9305 165.707 28.2516C166.011 28.5558 166.434 28.708 166.975 28.708C167.6 28.708 168.133 28.5389 168.572 28.2009L169.637 30.9896Z" fill="#6941C6"/>
</svg>
