<svg width="166" height="45" viewBox="0 0 166 45" fill="none" xmlns="http://www.w3.org/2000/svg">
<path d="M14.3946 31.1314C22.2526 31.1314 28.6227 24.7612 28.6227 16.9032C28.6227 16.0127 28.5409 15.1412 28.3844 14.296C27.5391 14.1394 26.6677 14.0576 25.7771 14.0576C17.9191 14.0576 11.549 20.4278 11.549 28.2858C11.549 29.1763 11.6308 30.0478 11.7873 30.893C12.6325 31.0496 13.504 31.1314 14.3946 31.1314Z" fill="#B692F6"/>
<path fill-rule="evenodd" clip-rule="evenodd" d="M11.7874 30.8932C5.17458 29.6686 0.166504 23.8709 0.166504 16.9034C0.166504 9.04545 6.53666 2.67529 14.3947 2.67529C21.3621 2.67529 27.1598 7.68337 28.3844 14.2962C27.5392 14.1396 26.6677 14.0578 25.7772 14.0578C17.9192 14.0578 11.549 20.428 11.549 28.286C11.549 29.1765 11.6308 30.048 11.7874 30.8932Z" fill="#B692F6"/>
<path fill-rule="evenodd" clip-rule="evenodd" d="M14.3946 31.1313C22.2526 31.1313 28.6228 24.7612 28.6228 16.9032C28.6228 16.0126 28.541 15.1411 28.3844 14.2959C34.9972 15.5206 40.0053 21.3183 40.0053 28.2857C40.0053 36.1437 33.6351 42.5138 25.7772 42.5138C18.8097 42.5138 13.012 37.5058 11.7874 30.893C12.6326 31.0495 13.5041 31.1313 14.3946 31.1313Z" fill="#D6BBFB"/>
<path d="M67.3746 27.0349C66.8675 28.6743 65.9802 29.8997 64.7126 30.7109C63.445 31.5053 61.9662 31.9025 60.276 31.9025C58.6197 31.9025 57.1831 31.556 55.9662 30.8631C54.7662 30.1701 53.8366 29.1814 53.1775 27.8969C52.5352 26.6124 52.2141 25.0744 52.2141 23.2828C52.2141 21.4913 52.5437 19.9533 53.2028 18.6688C53.862 17.3843 54.7916 16.3955 55.9916 15.7026C57.1915 15.0096 58.6028 14.6631 60.2253 14.6631C61.9324 14.6631 63.3943 15.0265 64.6112 15.7533C65.845 16.4631 66.6901 17.5448 67.1464 18.9983L63.9774 20.342C63.6901 19.3279 63.2507 18.6096 62.6591 18.1871C62.0676 17.7476 61.307 17.5279 60.3774 17.5279C58.9915 17.5279 57.8845 18.0265 57.0563 19.0237C56.2451 20.004 55.8394 21.4237 55.8394 23.2828C55.8394 25.1251 56.2282 26.5448 57.0056 27.5419C57.7831 28.5391 58.907 29.0377 60.3774 29.0377C61.2901 29.0377 62.076 28.7926 62.7352 28.3025C63.4112 27.8124 63.8845 27.0687 64.1549 26.0715L67.3746 27.0349Z" fill="#6941C6"/>
<path d="M71.7508 17.1476C70.3142 17.1476 69.5959 16.5307 69.5959 15.2969C69.5959 14.0462 70.3142 13.4209 71.7508 13.4209C73.1874 13.4209 73.9057 14.0462 73.9057 15.2969C73.9057 16.5307 73.1874 17.1476 71.7508 17.1476ZM73.4747 18.973V31.649H70.0015V18.973H73.4747Z" fill="#6941C6"/>
<path d="M77.1565 31.649V18.973H80.1734L80.4015 21.4575C80.7227 20.5955 81.2043 19.9279 81.8466 19.4547C82.5057 18.9645 83.3339 18.7195 84.3311 18.7195C84.9226 18.7195 85.379 18.8124 85.7001 18.9983L85.2945 21.9138C85.1255 21.8631 84.9142 21.8209 84.6607 21.787C84.424 21.7363 84.1114 21.711 83.7226 21.711C83.1987 21.711 82.7001 21.8378 82.2269 22.0913C81.7705 22.3279 81.3903 22.6997 81.086 23.2068C80.7818 23.6969 80.6297 24.3222 80.6297 25.0828V31.649H77.1565Z" fill="#6941C6"/>
<path d="M93.3592 18.7195C95.0493 18.7195 96.3591 19.0828 97.2887 19.8096C98.2352 20.5364 98.8605 21.4152 99.1648 22.4462L95.9197 23.6124C95.5817 22.0744 94.7451 21.3054 93.4099 21.3054C92.4465 21.3054 91.6944 21.6434 91.1535 22.3194C90.6296 22.9955 90.3676 24.0011 90.3676 25.3363C90.3676 26.6884 90.6381 27.6941 91.1789 28.3532C91.7366 28.9955 92.4887 29.3166 93.4352 29.3166C94.9056 29.3166 95.7845 28.5645 96.0718 27.0603L99.2155 28.0743C98.9281 29.2067 98.2859 30.1278 97.2887 30.8377C96.3084 31.5476 95.0324 31.9025 93.4606 31.9025C92.1423 31.9025 90.9845 31.6405 89.9874 31.1166C89.0071 30.5926 88.2465 29.8405 87.7057 28.8603C87.1648 27.88 86.8944 26.6969 86.8944 25.311C86.8944 23.9251 87.1648 22.742 87.7057 21.7617C88.2634 20.7814 89.024 20.0293 89.9874 19.5054C90.9676 18.9814 92.0916 18.7195 93.3592 18.7195Z" fill="#6941C6"/>
<path d="M107.695 18.7195C108.962 18.7195 110.086 18.9814 111.066 19.5054C112.047 20.0293 112.807 20.7814 113.348 21.7617C113.906 22.742 114.185 23.9251 114.185 25.311C114.185 26.6969 113.906 27.88 113.348 28.8603C112.807 29.8405 112.047 30.5926 111.066 31.1166C110.086 31.6405 108.962 31.9025 107.695 31.9025C106.41 31.9025 105.278 31.6405 104.297 31.1166C103.334 30.5926 102.573 29.8405 102.016 28.8603C101.475 27.88 101.204 26.6969 101.204 25.311C101.204 23.9251 101.475 22.742 102.016 21.7617C102.573 20.7814 103.334 20.0293 104.297 19.5054C105.278 18.9814 106.41 18.7195 107.695 18.7195ZM107.695 21.3054C106.748 21.3054 106.004 21.6434 105.464 22.3194C104.94 22.9786 104.678 23.9758 104.678 25.311C104.678 26.6462 104.94 27.6518 105.464 28.3279C106.004 28.987 106.748 29.3166 107.695 29.3166C108.624 29.3166 109.351 28.987 109.875 28.3279C110.416 27.6518 110.686 26.6462 110.686 25.311C110.686 23.9758 110.416 22.9786 109.875 22.3194C109.351 21.6434 108.624 21.3054 107.695 21.3054Z" fill="#6941C6"/>
<path d="M122.871 18.7195C124.139 18.7195 125.263 18.9814 126.243 19.5054C127.223 20.0293 127.984 20.7814 128.525 21.7617C129.082 22.742 129.361 23.9251 129.361 25.311C129.361 26.6969 129.082 27.88 128.525 28.8603C127.984 29.8405 127.223 30.5926 126.243 31.1166C125.263 31.6405 124.139 31.9025 122.871 31.9025C121.587 31.9025 120.454 31.6405 119.474 31.1166C118.51 30.5926 117.75 29.8405 117.192 28.8603C116.651 27.88 116.381 26.6969 116.381 25.311C116.381 23.9251 116.651 22.742 117.192 21.7617C117.75 20.7814 118.51 20.0293 119.474 19.5054C120.454 18.9814 121.587 18.7195 122.871 18.7195ZM122.871 21.3054C121.925 21.3054 121.181 21.6434 120.64 22.3194C120.116 22.9786 119.854 23.9758 119.854 25.311C119.854 26.6462 120.116 27.6518 120.64 28.3279C121.181 28.987 121.925 29.3166 122.871 29.3166C123.801 29.3166 124.527 28.987 125.051 28.3279C125.592 27.6518 125.863 26.6462 125.863 25.311C125.863 23.9758 125.592 22.9786 125.051 22.3194C124.527 21.6434 123.801 21.3054 122.871 21.3054Z" fill="#6941C6"/>
<path d="M135.69 13.4209V27.7448C135.69 28.3363 135.791 28.7504 135.994 28.987C136.197 29.2236 136.535 29.3419 137.008 29.3419C137.295 29.3419 137.532 29.325 137.718 29.2912C137.904 29.2574 138.141 29.1898 138.428 29.0884L138.124 31.3701C137.836 31.5391 137.473 31.6659 137.033 31.7504C136.611 31.8518 136.188 31.9025 135.766 31.9025C134.532 31.9025 133.628 31.6067 133.053 31.0152C132.495 30.4067 132.217 29.4433 132.217 28.125V13.4209H135.69Z" fill="#6941C6"/>
<path d="M146.245 31.9025C144.25 31.9025 142.653 31.3278 141.453 30.1786C140.253 29.0124 139.653 27.3898 139.653 25.311C139.653 23.9251 139.924 22.742 140.465 21.7617C141.005 20.7814 141.757 20.0293 142.721 19.5054C143.701 18.9814 144.817 18.7195 146.067 18.7195C147.352 18.7195 148.442 18.9814 149.338 19.5054C150.233 20.0124 150.918 20.7138 151.391 21.6096C151.864 22.4885 152.101 23.4941 152.101 24.6265C152.101 24.9645 152.093 25.2856 152.076 25.5898C152.059 25.8941 152.033 26.1645 152 26.4011H143.05C143.186 27.3814 143.524 28.1166 144.064 28.6067C144.622 29.08 145.341 29.3166 146.219 29.3166C146.963 29.3166 147.563 29.1729 148.019 28.8856C148.476 28.5983 148.831 28.2011 149.084 27.6941L151.848 28.7588C151.442 29.756 150.732 30.5335 149.718 31.0912C148.704 31.6321 147.546 31.9025 146.245 31.9025ZM146.042 21.28C144.403 21.28 143.414 22.1842 143.076 23.9927H148.78C148.679 23.1138 148.391 22.4462 147.918 21.9899C147.462 21.5166 146.836 21.28 146.042 21.28Z" fill="#6941C6"/>
<path d="M160.115 31.9025C158.83 31.9025 157.656 31.6743 156.591 31.218C155.543 30.7617 154.69 30.1194 154.03 29.2912L156.033 27.2631C156.439 27.8715 156.98 28.3701 157.656 28.7588C158.332 29.1476 159.135 29.3419 160.064 29.3419C160.723 29.3419 161.247 29.249 161.636 29.0631C162.042 28.8603 162.244 28.5476 162.244 28.125C162.244 27.8546 162.151 27.6265 161.966 27.4405C161.78 27.2377 161.408 27.0772 160.85 26.9589L158.619 26.5025C157.149 26.1983 156.101 25.742 155.475 25.1335C154.867 24.5082 154.563 23.7053 154.563 22.7251C154.563 22.0321 154.766 21.3814 155.171 20.773C155.594 20.1645 156.219 19.6744 157.047 19.3026C157.875 18.9138 158.906 18.7195 160.14 18.7195C162.709 18.7195 164.551 19.5054 165.667 21.0772L163.588 23.1054C163.216 22.5138 162.726 22.0659 162.118 21.7617C161.526 21.4406 160.901 21.28 160.242 21.28C158.754 21.28 158.011 21.6941 158.011 22.5223C158.011 22.7927 158.129 23.0293 158.366 23.2321C158.602 23.418 159.033 23.5786 159.659 23.7138L162.244 24.2462C163.495 24.4997 164.391 24.9307 164.932 25.5391C165.473 26.1307 165.743 26.849 165.743 27.6941C165.743 28.911 165.253 29.9166 164.273 30.7109C163.309 31.5053 161.923 31.9025 160.115 31.9025Z" fill="#6941C6"/>
</svg>
