<svg width="154" height="45" viewBox="0 0 154 45" fill="none" xmlns="http://www.w3.org/2000/svg">
<rect x="0.144531" y="18.2485" width="8.69209" height="8.69209" fill="#B692F6"/>
<rect x="26.2208" y="26.9404" width="8.6921" height="8.69209" transform="rotate(180 26.2208 26.9404)" fill="#B692F6"/>
<path d="M8.83667 18.2487L17.5288 9.55664V18.2487L8.83667 26.9408V18.2487Z" fill="#E9D7FE"/>
<path d="M17.5287 26.9407L8.8366 35.6328L8.8366 26.9407L17.5287 18.2486L17.5287 26.9407Z" fill="#D6BBFB"/>
<path d="M0.144531 18.2484L17.5287 0.864258V9.55635L8.83662 18.2484H0.144531Z" fill="#B692F6"/>
<path d="M26.2208 26.9405L8.83664 44.3247L8.83664 35.6326L17.5287 26.9405L26.2208 26.9405Z" fill="#B692F6"/>
<path d="M45.1516 31.9019C43.7826 31.9019 42.4558 31.7075 41.1713 31.3188C39.9037 30.9301 38.8981 30.4146 38.1544 29.7723L39.2953 27.2118C40.022 27.7864 40.9093 28.2597 41.9572 28.6315C43.022 28.9864 44.0868 29.1639 45.1516 29.1639C46.4699 29.1639 47.4501 28.9526 48.0924 28.5301C48.7515 28.1076 49.0811 27.5498 49.0811 26.8569C49.0811 26.3498 48.8952 25.9357 48.5234 25.6146C48.1684 25.2766 47.7121 25.0146 47.1544 24.8287C46.5966 24.6428 45.8361 24.4315 44.8727 24.1949C43.5206 23.8738 42.422 23.5527 41.5769 23.2315C40.7488 22.9104 40.0305 22.4118 39.422 21.7358C38.8305 21.0428 38.5347 20.1132 38.5347 18.947C38.5347 17.9668 38.7967 17.0794 39.3206 16.2851C39.8615 15.4738 40.6643 14.8316 41.729 14.3583C42.8107 13.8851 44.129 13.6485 45.684 13.6485C46.7656 13.6485 47.8304 13.7837 48.8783 14.0541C49.9262 14.3245 50.8304 14.7133 51.591 15.2203L50.5515 17.7809C49.7741 17.3245 48.9628 16.978 48.1177 16.7414C47.2727 16.5048 46.453 16.3865 45.6586 16.3865C44.3572 16.3865 43.3854 16.6062 42.7431 17.0456C42.1178 17.4851 41.8051 18.0682 41.8051 18.7949C41.8051 19.302 41.9826 19.7161 42.3375 20.0372C42.7093 20.3583 43.1741 20.6118 43.7319 20.7977C44.2896 20.9837 45.0502 21.1949 46.0135 21.4315C47.3318 21.7358 48.4135 22.0569 49.2586 22.3949C50.1036 22.716 50.8219 23.2146 51.4135 23.8907C52.0219 24.5667 52.3262 25.4794 52.3262 26.6287C52.3262 27.609 52.0557 28.4963 51.5149 29.2907C50.991 30.085 50.1882 30.7188 49.1065 31.192C48.0248 31.6653 46.7065 31.9019 45.1516 31.9019Z" fill="#6941C6"/>
<path d="M55.29 18.1104H58.459V31.6484H55.29V18.1104ZM56.8871 15.8795C56.3125 15.8795 55.8308 15.702 55.4421 15.3471C55.0534 14.9752 54.859 14.5189 54.859 13.9781C54.859 13.4372 55.0534 12.9893 55.4421 12.6344C55.8308 12.2626 56.3125 12.0767 56.8871 12.0767C57.4618 12.0767 57.9435 12.2541 58.3322 12.6091C58.7209 12.9471 58.9153 13.3781 58.9153 13.902C58.9153 14.4597 58.7209 14.933 58.3322 15.3217C57.9604 15.6935 57.4787 15.8795 56.8871 15.8795Z" fill="#6941C6"/>
<path d="M66.8013 31.8258C65.7028 31.8258 64.6295 31.6822 63.5816 31.3949C62.5338 31.1075 61.6971 30.7442 61.0718 30.3047L62.2887 27.8963C62.8971 28.3019 63.6239 28.6315 64.469 28.885C65.3309 29.1216 66.176 29.2399 67.0042 29.2399C68.8971 29.2399 69.8436 28.7414 69.8436 27.7442C69.8436 27.2709 69.5985 26.9414 69.1084 26.7555C68.6351 26.5695 67.8661 26.3921 66.8013 26.2231C65.6859 26.054 64.7732 25.8597 64.0633 25.64C63.3704 25.4202 62.7619 25.04 62.238 24.4991C61.731 23.9414 61.4774 23.1724 61.4774 22.1921C61.4774 20.9076 62.0098 19.8851 63.0746 19.1245C64.1563 18.347 65.6098 17.9583 67.4351 17.9583C68.3647 17.9583 69.2943 18.0682 70.2239 18.2879C71.1534 18.4907 71.914 18.7696 72.5055 19.1245L71.2886 21.5329C70.1394 20.8569 68.8464 20.5189 67.4098 20.5189C66.4802 20.5189 65.7704 20.6625 65.2802 20.9499C64.807 21.2203 64.5704 21.5836 64.5704 22.04C64.5704 22.547 64.8239 22.9104 65.3309 23.1301C65.8549 23.3329 66.6577 23.5273 67.7394 23.7132C68.8211 23.8822 69.7084 24.0766 70.4013 24.2963C71.0943 24.516 71.6858 24.8879 72.176 25.4118C72.683 25.9357 72.9365 26.6794 72.9365 27.6428C72.9365 28.9104 72.3872 29.9245 71.2886 30.685C70.1901 31.4456 68.6943 31.8258 66.8013 31.8258Z" fill="#6941C6"/>
<path d="M88.094 18.1104L81.756 32.7385C81.1645 34.2089 80.4462 35.2399 79.6011 35.8315C78.7561 36.4399 77.7335 36.7441 76.5335 36.7441C75.8575 36.7441 75.1899 36.6343 74.5307 36.4146C73.8716 36.1948 73.3307 35.8906 72.9082 35.5019L74.1758 33.1695C74.48 33.4568 74.8349 33.685 75.2406 33.854C75.6631 34.023 76.0856 34.1075 76.5082 34.1075C77.0659 34.1075 77.5223 33.9639 77.8772 33.6765C78.249 33.3892 78.587 32.9075 78.8913 32.2315L79.1194 31.6991L73.2124 18.1104H76.5082L80.7673 28.1245L85.0518 18.1104H88.094Z" fill="#6941C6"/>
<path d="M97.5788 17.9583C98.8971 17.9583 100.072 18.2456 101.103 18.8203C102.151 19.3949 102.97 20.2062 103.562 21.2541C104.153 22.302 104.449 23.5104 104.449 24.8794C104.449 26.2484 104.153 27.4653 103.562 28.5301C102.97 29.578 102.151 30.3892 101.103 30.9639C100.072 31.5385 98.8971 31.8258 97.5788 31.8258C95.7535 31.8258 94.3084 31.2174 93.2436 30.0005V36.5667H90.0746V18.1104H93.0915V19.8851C93.6155 19.2428 94.2577 18.7611 95.0183 18.44C95.7957 18.1189 96.6493 17.9583 97.5788 17.9583ZM97.2239 29.1132C98.3901 29.1132 99.345 28.7245 100.089 27.947C100.849 27.1695 101.229 26.147 101.229 24.8794C101.229 23.6118 100.849 22.5893 100.089 21.8118C99.345 21.0344 98.3901 20.6456 97.2239 20.6456C96.4633 20.6456 95.7788 20.8231 95.1704 21.178C94.5619 21.516 94.0803 22.0062 93.7253 22.6484C93.3704 23.2907 93.1929 24.0343 93.1929 24.8794C93.1929 25.7245 93.3704 26.4681 93.7253 27.1104C94.0803 27.7526 94.5619 28.2512 95.1704 28.6061C95.7788 28.9442 96.4633 29.1132 97.2239 29.1132Z" fill="#6941C6"/>
<path d="M115.136 17.9583C116.843 17.9583 118.212 18.4569 119.243 19.4541C120.274 20.4513 120.79 21.9301 120.79 23.8907V31.6484H117.621V24.2963C117.621 23.1132 117.342 22.2259 116.784 21.6344C116.226 21.0259 115.432 20.7217 114.401 20.7217C113.235 20.7217 112.314 21.0766 111.638 21.7865C110.962 22.4794 110.624 23.485 110.624 24.8034V31.6484H107.455V12.8372H110.624V19.6823C111.148 19.1245 111.79 18.702 112.55 18.4147C113.328 18.1104 114.19 17.9583 115.136 17.9583Z" fill="#6941C6"/>
<path d="M137.917 18.1104V31.6484H134.9V29.9245C134.393 30.5329 133.759 31.0061 132.998 31.3442C132.238 31.6653 131.418 31.8258 130.539 31.8258C128.731 31.8258 127.303 31.3273 126.255 30.3301C125.224 29.316 124.708 27.8202 124.708 25.8428V18.1104H127.877V25.4118C127.877 26.6287 128.148 27.5414 128.689 28.1498C129.246 28.7414 130.032 29.0371 131.046 29.0371C132.179 29.0371 133.075 28.6907 133.734 27.9977C134.41 27.2878 134.748 26.2738 134.748 24.9555V18.1104H137.917Z" fill="#6941C6"/>
<path d="M146.249 31.8258C145.15 31.8258 144.077 31.6822 143.029 31.3949C141.981 31.1075 141.145 30.7442 140.519 30.3047L141.736 27.8963C142.345 28.3019 143.072 28.6315 143.917 28.885C144.779 29.1216 145.624 29.2399 146.452 29.2399C148.345 29.2399 149.291 28.7414 149.291 27.7442C149.291 27.2709 149.046 26.9414 148.556 26.7555C148.083 26.5695 147.314 26.3921 146.249 26.2231C145.134 26.054 144.221 25.8597 143.511 25.64C142.818 25.4202 142.21 25.04 141.686 24.4991C141.179 23.9414 140.925 23.1724 140.925 22.1921C140.925 20.9076 141.458 19.8851 142.522 19.1245C143.604 18.347 145.057 17.9583 146.883 17.9583C147.812 17.9583 148.742 18.0682 149.672 18.2879C150.601 18.4907 151.362 18.7696 151.953 19.1245L150.736 21.5329C149.587 20.8569 148.294 20.5189 146.857 20.5189C145.928 20.5189 145.218 20.6625 144.728 20.9499C144.255 21.2203 144.018 21.5836 144.018 22.04C144.018 22.547 144.272 22.9104 144.779 23.1301C145.303 23.3329 146.105 23.5273 147.187 23.7132C148.269 23.8822 149.156 24.0766 149.849 24.2963C150.542 24.516 151.134 24.8879 151.624 25.4118C152.131 25.9357 152.384 26.6794 152.384 27.6428C152.384 28.9104 151.835 29.9245 150.736 30.685C149.638 31.4456 148.142 31.8258 146.249 31.8258Z" fill="#6941C6"/>
</svg>
