<svg width="146" height="45" viewBox="0 0 146 45" fill="none" xmlns="http://www.w3.org/2000/svg">
<path d="M20.7839 2.67529C9.78268 2.67529 0.864502 11.5935 0.864502 22.5947C0.864502 33.5959 9.78268 42.5141 20.7839 42.5141C30.654 42.5141 38.8474 35.3355 40.4279 25.9146H40.2849C38.8108 31.6422 33.6115 35.8743 27.4237 35.8743C20.0896 35.8743 14.1441 29.9288 14.1441 22.5947C14.1441 15.2606 20.0896 9.3151 27.4237 9.3151C33.6115 9.3151 38.8108 13.5472 40.2849 19.2748H40.4279C38.8474 9.85387 30.654 2.67529 20.7839 2.67529Z" fill="#D6BBFB"/>
<path d="M0.864502 22.5947C0.864502 11.5935 9.78272 2.67529 20.7839 2.67529C30.654 2.67529 38.8474 9.85387 40.4279 19.2748H27.0053C25.5312 13.5472 20.3319 9.3151 14.1441 9.3151C6.80998 9.3151 0.864502 15.2606 0.864502 22.5947Z" fill="#B692F6"/>
<path d="M0.864502 22.5948C0.864502 33.5959 9.78272 42.5142 20.7839 42.5142C30.654 42.5142 38.8474 35.3356 40.4279 25.9147H27.0053C25.5312 31.6422 20.3319 35.8744 14.1441 35.8744C6.80998 35.8744 0.864502 29.9289 0.864502 22.5948Z" fill="#B692F6"/>
<path d="M69.1689 19.432C68.6017 15.3357 65.4508 12.959 61.3635 12.959C56.547 12.959 52.9188 16.4701 52.9188 22.43C52.9188 28.3808 56.5019 31.9009 61.3635 31.9009C65.7479 31.9009 68.6558 29.0651 69.1689 25.5449L65.8019 25.5269C65.3787 27.6876 63.6142 28.903 61.4085 28.903C58.4196 28.903 56.2769 26.6613 56.2769 22.43C56.2769 18.2707 58.4015 15.9569 61.4175 15.9569C63.6592 15.9569 65.4147 17.2263 65.8019 19.432H69.1689Z" fill="#6941C6"/>
<path d="M76.0628 31.928C78.2325 31.928 79.5289 30.9106 80.1231 29.7493H80.2312V31.6489H83.3641V22.394C83.3641 18.7388 80.3842 17.6405 77.7464 17.6405C74.8385 17.6405 72.6058 18.9369 71.8855 21.4577L74.9285 21.8898C75.2526 20.9445 76.1709 20.1342 77.7644 20.1342C79.2769 20.1342 80.1051 20.9085 80.1051 22.2679V22.3219C80.1051 23.2582 79.1238 23.3032 76.684 23.5643C74.0012 23.8524 71.4354 24.6537 71.4354 27.7686C71.4354 30.4875 73.425 31.928 76.0628 31.928ZM76.9091 29.5332C75.5497 29.5332 74.5774 28.912 74.5774 27.7146C74.5774 26.4632 75.6667 25.9411 77.1252 25.734C77.9804 25.617 79.691 25.4009 80.1141 25.0588V26.6883C80.1141 28.2278 78.8717 29.5332 76.9091 29.5332Z" fill="#6941C6"/>
<path d="M93.5463 17.8205H90.8185V14.5075H87.5595V17.8205H85.5968V20.3413H87.5595V28.0297C87.5414 30.6315 89.432 31.9099 91.8808 31.8379C92.8081 31.8109 93.4473 31.6309 93.7984 31.5138L93.2492 28.966C93.0692 29.011 92.7001 29.0921 92.2949 29.0921C91.4757 29.0921 90.8185 28.804 90.8185 27.4896V20.3413H93.5463V17.8205Z" fill="#6941C6"/>
<path d="M100.251 31.928C102.421 31.928 103.717 30.9106 104.311 29.7493H104.419V31.6489H107.552V22.394C107.552 18.7388 104.573 17.6405 101.935 17.6405C99.0268 17.6405 96.7941 18.9369 96.0739 21.4577L99.1168 21.8898C99.4409 20.9445 100.359 20.1342 101.953 20.1342C103.465 20.1342 104.293 20.9085 104.293 22.2679V22.3219C104.293 23.2582 103.312 23.3032 100.872 23.5643C98.1895 23.8524 95.6237 24.6537 95.6237 27.7686C95.6237 30.4875 97.6134 31.928 100.251 31.928ZM101.097 29.5332C99.738 29.5332 98.7657 28.912 98.7657 27.7146C98.7657 26.4632 99.8551 25.9411 101.314 25.734C102.169 25.617 103.879 25.4009 104.302 25.0588V26.6883C104.302 28.2278 103.06 29.5332 101.097 29.5332Z" fill="#6941C6"/>
<path d="M114.089 13.2111H110.83V31.6489H114.089V13.2111Z" fill="#6941C6"/>
<path d="M123.472 31.9189C127.523 31.9189 130.098 29.0651 130.098 24.7887C130.098 20.5034 127.523 17.6405 123.472 17.6405C119.42 17.6405 116.846 20.5034 116.846 24.7887C116.846 29.0651 119.42 31.9189 123.472 31.9189ZM123.49 29.3081C121.248 29.3081 120.15 27.3095 120.15 24.7797C120.15 22.2499 121.248 20.2243 123.49 20.2243C125.695 20.2243 126.794 22.2499 126.794 24.7797C126.794 27.3095 125.695 29.3081 123.49 29.3081Z" fill="#6941C6"/>
<path d="M138.878 37.1226C142.614 37.1226 145.369 35.412 145.369 31.8739V17.8205H142.155V20.1072H141.975C141.48 19.1079 140.444 17.6405 138.005 17.6405C134.809 17.6405 132.297 20.1432 132.297 24.6897C132.297 29.2001 134.809 31.4508 137.996 31.4508C140.363 31.4508 141.471 30.1814 141.975 29.1641H142.137V31.7839C142.137 33.8185 140.786 34.6558 138.932 34.6558C136.969 34.6558 136.105 33.7285 135.709 32.9183L132.774 33.6295C133.368 35.5651 135.358 37.1226 138.878 37.1226ZM138.905 28.894C136.753 28.894 135.619 27.2195 135.619 24.6717C135.619 22.1599 136.735 20.3143 138.905 20.3143C141.002 20.3143 142.155 22.0518 142.155 24.6717C142.155 27.3095 140.984 28.894 138.905 28.894Z" fill="#6941C6"/>
</svg>
