<svg width="134" height="45" viewBox="0 0 134 45" fill="none" xmlns="http://www.w3.org/2000/svg">
<path d="M12.9692 21.0717C13.7137 18.2936 16.5694 15.438 19.3474 14.6935L36.6673 10.0519C39.4454 9.30741 41.094 10.956 40.3495 13.7341L35.7079 31.054C34.9634 33.8321 32.1078 36.6877 29.3297 37.4322L12.0098 42.0737C9.23172 42.8182 7.58317 41.1697 8.32767 38.3916L12.9692 21.0717Z" fill="#D6BBFB"/>
<path d="M6.02574 14.1283C6.77024 11.3502 9.62587 8.49461 12.404 7.75011L29.7239 3.10855C32.502 2.36405 34.1505 4.01261 33.406 6.7907L28.7645 24.1106C28.02 26.8887 25.1644 29.7443 22.3863 30.4888L5.06634 35.1304C2.28824 35.8749 0.639687 34.2263 1.38419 31.4482L6.02574 14.1283Z" fill="#B692F6"/>
<path d="M56.4429 29.3165H62.4006V31.6489H53.5527V14.0293H56.4429V29.3165Z" fill="#6941C6"/>
<path d="M63.8541 24.6011C63.8541 23.1983 64.1415 21.956 64.7161 20.8743C65.3077 19.7926 66.102 18.956 67.0992 18.3645C68.1133 17.756 69.2288 17.4518 70.4457 17.4518C71.5442 17.4518 72.4992 17.6715 73.3104 18.111C74.1386 18.5335 74.7978 19.0659 75.2879 19.7081V17.68H78.2034V31.6489H75.2879V29.5701C74.7978 30.2292 74.1301 30.7785 73.2851 31.2179C72.44 31.6574 71.4766 31.8771 70.395 31.8771C69.195 31.8771 68.0964 31.5729 67.0992 30.9644C66.102 30.3391 65.3077 29.4771 64.7161 28.3785C64.1415 27.263 63.8541 26.0039 63.8541 24.6011ZM75.2879 24.6518C75.2879 23.6884 75.0851 22.8518 74.6794 22.1419C74.2907 21.4321 73.7752 20.8912 73.133 20.5194C72.4907 20.1476 71.7978 19.9617 71.0541 19.9617C70.3105 19.9617 69.6175 20.1476 68.9752 20.5194C68.333 20.8743 67.8091 21.4067 67.4034 22.1166C67.0147 22.8095 66.8203 23.6377 66.8203 24.6011C66.8203 25.5644 67.0147 26.4095 67.4034 27.1363C67.8091 27.863 68.333 28.4208 68.9752 28.8095C69.6344 29.1813 70.3274 29.3672 71.0541 29.3672C71.7978 29.3672 72.4907 29.1813 73.133 28.8095C73.7752 28.4377 74.2907 27.8968 74.6794 27.187C75.0851 26.4602 75.2879 25.6151 75.2879 24.6518Z" fill="#6941C6"/>
<path d="M94.574 17.68L86.005 38.2151H83.0135L85.8529 31.4207L80.3515 17.68H83.5712L87.5008 28.3278L91.5825 17.68H94.574Z" fill="#6941C6"/>
<path d="M109.558 24.3222C109.558 24.8461 109.524 25.3194 109.456 25.7419H98.7832C98.8677 26.8574 99.2818 27.7532 100.025 28.4292C100.769 29.1053 101.682 29.4433 102.763 29.4433C104.318 29.4433 105.417 28.7926 106.059 27.4912H109.178C108.755 28.7757 107.986 29.832 106.87 30.6602C105.772 31.4715 104.403 31.8771 102.763 31.8771C101.428 31.8771 100.228 31.5813 99.1635 30.9898C98.1156 30.3813 97.2875 29.5363 96.679 28.4546C96.0875 27.356 95.7917 26.0884 95.7917 24.6518C95.7917 23.2152 96.079 21.956 96.6537 20.8743C97.2452 19.7757 98.0649 18.9307 99.1128 18.3391C100.178 17.7476 101.394 17.4518 102.763 17.4518C104.082 17.4518 105.256 17.7391 106.287 18.3138C107.318 18.8884 108.121 19.6997 108.696 20.7476C109.27 21.7786 109.558 22.9701 109.558 24.3222ZM106.541 23.4095C106.524 22.3447 106.144 21.4912 105.4 20.849C104.656 20.2067 103.735 19.8856 102.637 19.8856C101.64 19.8856 100.786 20.2067 100.076 20.849C99.3663 21.4743 98.9438 22.3278 98.8086 23.4095H106.541Z" fill="#6941C6"/>
<path d="M115.292 19.7081C115.715 18.9983 116.272 18.449 116.965 18.0603C117.675 17.6546 118.512 17.4518 119.475 17.4518V20.4433H118.74C117.608 20.4433 116.746 20.7307 116.154 21.3053C115.579 21.88 115.292 22.8771 115.292 24.2968V31.6489H112.402V17.68H115.292V19.7081Z" fill="#6941C6"/>
<path d="M127.202 31.8771C126.104 31.8771 125.115 31.6827 124.236 31.294C123.374 30.8884 122.69 30.3475 122.182 29.6715C121.675 28.9785 121.405 28.2095 121.371 27.3644H124.363C124.413 27.956 124.692 28.4546 125.199 28.8602C125.723 29.2489 126.374 29.4433 127.151 29.4433C127.963 29.4433 128.588 29.2912 129.028 28.987C129.484 28.6658 129.712 28.2602 129.712 27.7701C129.712 27.2461 129.459 26.8574 128.951 26.6039C128.461 26.3504 127.675 26.0715 126.594 25.7673C125.546 25.4799 124.692 25.2011 124.033 24.9306C123.374 24.6602 122.799 24.2461 122.309 23.6884C121.836 23.1307 121.599 22.3954 121.599 21.4828C121.599 20.7391 121.819 20.0631 122.259 19.4546C122.698 18.8293 123.323 18.3391 124.135 17.9842C124.963 17.6293 125.909 17.4518 126.974 17.4518C128.563 17.4518 129.839 17.8574 130.802 18.6687C131.782 19.4631 132.306 20.5532 132.374 21.9391H129.484C129.433 21.3138 129.18 20.8152 128.723 20.4433C128.267 20.0715 127.65 19.8856 126.873 19.8856C126.112 19.8856 125.529 20.0293 125.123 20.3166C124.718 20.6039 124.515 20.9842 124.515 21.4574C124.515 21.8293 124.65 22.1419 124.921 22.3954C125.191 22.649 125.521 22.8518 125.909 23.0039C126.298 23.1391 126.873 23.3166 127.633 23.5363C128.647 23.8067 129.475 24.0856 130.118 24.3729C130.777 24.6433 131.343 25.049 131.816 25.5898C132.289 26.1306 132.535 26.8489 132.551 27.7447C132.551 28.5391 132.332 29.2489 131.892 29.8743C131.453 30.4996 130.828 30.9898 130.016 31.3447C129.222 31.6996 128.284 31.8771 127.202 31.8771Z" fill="#6941C6"/>
</svg>
