<svg width="38" height="38" viewBox="0 0 38 38" fill="none" xmlns="http://www.w3.org/2000/svg">
<circle cx="19.1831" cy="18.5916" r="18.5916" fill="#DBF2E0"/>
<path d="M18.6123 29H20.4561L20.4717 27.1953C23.8545 26.9375 25.8154 25.1406 25.8232 22.4297C25.8154 19.7656 23.8076 18.3516 21.0264 17.7266L20.5654 17.6172L20.5967 13.7109C21.6357 13.9531 22.2686 14.6172 22.3623 15.6016H25.6045C25.5654 13.0156 23.6357 11.1641 20.6279 10.8359L20.6436 9H18.7998L18.7842 10.8203C15.7295 11.1172 13.5732 12.9609 13.5889 15.625C13.5811 17.9844 15.2451 19.3359 17.9482 19.9844L18.6982 20.1719L18.6592 24.3047C17.3857 24.0625 16.5264 23.2813 16.4404 21.9766H13.167C13.2451 25.1328 15.3154 26.8984 18.6279 27.1875L18.6123 29ZM20.5029 24.3047L20.5342 20.6563C21.7451 21.0391 22.4014 21.5313 22.4092 22.4219C22.4014 23.3672 21.6826 24.0703 20.5029 24.3047ZM18.7217 17.1406C17.7451 16.8047 17.042 16.2969 17.0576 15.3984C17.0576 14.5625 17.6514 13.9141 18.7529 13.6875L18.7217 17.1406Z" fill="#2E9845"/>
</svg>
